<mxfile host="app.diagrams.net" modified="2020-10-22T09:20:15.866Z" agent="5.0 (Windows NT 10.0; Win64; x64) AppleWebKit/537.36 (KHTML, like Gecko) Chrome/86.0.4240.75 Safari/537.36" etag="igeXvF-LlIhBwVlRTyCc" version="13.8.1" type="github">
  <diagram id="rus0pA3ZWkQhySOD-V14" name="Page-1">
    <mxGraphModel dx="1809" dy="1085" grid="0" gridSize="10" guides="1" tooltips="1" connect="1" arrows="1" fold="1" page="0" pageScale="1" pageWidth="850" pageHeight="1100" math="0" shadow="0">
      <root>
        <mxCell id="0" />
        <mxCell id="1" parent="0" />
        <mxCell id="FZKiXIjqvIoWWZmxXVQ1-52" value="" style="whiteSpace=wrap;html=1;aspect=fixed;align=center;" parent="1" vertex="1">
          <mxGeometry x="120" y="-20" width="480" height="480" as="geometry" />
        </mxCell>
        <mxCell id="FZKiXIjqvIoWWZmxXVQ1-1" value="search &lt;br&gt;web page" style="ellipse;whiteSpace=wrap;html=1;" parent="1" vertex="1">
          <mxGeometry x="200" y="20" width="90" height="50" as="geometry" />
        </mxCell>
        <mxCell id="FZKiXIjqvIoWWZmxXVQ1-6" value="log in/&lt;br&gt;membership" style="ellipse;whiteSpace=wrap;html=1;" parent="1" vertex="1">
          <mxGeometry x="380" y="160" width="90" height="50" as="geometry" />
        </mxCell>
        <mxCell id="FZKiXIjqvIoWWZmxXVQ1-7" value="check availability" style="ellipse;whiteSpace=wrap;html=1;" parent="1" vertex="1">
          <mxGeometry x="370" y="50" width="90" height="50" as="geometry" />
        </mxCell>
        <mxCell id="FZKiXIjqvIoWWZmxXVQ1-8" value="enter arranged appointment" style="ellipse;whiteSpace=wrap;html=1;" parent="1" vertex="1">
          <mxGeometry x="380" y="360" width="90" height="50" as="geometry" />
        </mxCell>
        <mxCell id="FZKiXIjqvIoWWZmxXVQ1-10" value="receive e-mail confirmation" style="ellipse;whiteSpace=wrap;html=1;" parent="1" vertex="1">
          <mxGeometry x="200" y="300" width="90" height="50" as="geometry" />
        </mxCell>
        <mxCell id="FZKiXIjqvIoWWZmxXVQ1-11" value="Customer" style="shape=umlActor;verticalLabelPosition=bottom;verticalAlign=top;html=1;outlineConnect=0;" parent="1" vertex="1">
          <mxGeometry x="-20" y="175" width="30" height="60" as="geometry" />
        </mxCell>
        <mxCell id="FZKiXIjqvIoWWZmxXVQ1-14" value="" style="endArrow=classic;html=1;exitX=1;exitY=0.5;exitDx=0;exitDy=0;entryX=0;entryY=0.5;entryDx=0;entryDy=0;" parent="1" source="FZKiXIjqvIoWWZmxXVQ1-3" target="FZKiXIjqvIoWWZmxXVQ1-7" edge="1">
          <mxGeometry width="50" height="50" relative="1" as="geometry">
            <mxPoint x="400" y="290" as="sourcePoint" />
            <mxPoint x="450" y="240" as="targetPoint" />
            <Array as="points">
              <mxPoint x="320" y="100" />
            </Array>
          </mxGeometry>
        </mxCell>
        <mxCell id="FZKiXIjqvIoWWZmxXVQ1-16" value="&amp;lt;&amp;lt;extends&amp;gt;&amp;gt;" style="text;html=1;strokeColor=none;fillColor=none;align=center;verticalAlign=middle;whiteSpace=wrap;rounded=0;rotation=-25;" parent="1" vertex="1">
          <mxGeometry x="300" y="80" width="40" height="20" as="geometry" />
        </mxCell>
        <mxCell id="FZKiXIjqvIoWWZmxXVQ1-17" value="&amp;lt;&amp;lt;includes&amp;gt;&amp;gt;" style="text;html=1;strokeColor=none;fillColor=none;align=center;verticalAlign=middle;whiteSpace=wrap;rounded=0;rotation=-20;" parent="1" vertex="1">
          <mxGeometry x="310" y="230" width="40" height="20" as="geometry" />
        </mxCell>
        <mxCell id="FZKiXIjqvIoWWZmxXVQ1-20" value="" style="endArrow=classic;html=1;exitX=1;exitY=0.5;exitDx=0;exitDy=0;entryX=0;entryY=0.5;entryDx=0;entryDy=0;" parent="1" source="FZKiXIjqvIoWWZmxXVQ1-4" target="FZKiXIjqvIoWWZmxXVQ1-6" edge="1">
          <mxGeometry width="50" height="50" relative="1" as="geometry">
            <mxPoint x="400" y="290" as="sourcePoint" />
            <mxPoint x="450" y="240" as="targetPoint" />
          </mxGeometry>
        </mxCell>
        <mxCell id="FZKiXIjqvIoWWZmxXVQ1-21" value="" style="endArrow=classic;html=1;exitX=0.948;exitY=0.333;exitDx=0;exitDy=0;exitPerimeter=0;" parent="1" source="FZKiXIjqvIoWWZmxXVQ1-2" target="FZKiXIjqvIoWWZmxXVQ1-6" edge="1">
          <mxGeometry width="50" height="50" relative="1" as="geometry">
            <mxPoint x="400" y="290" as="sourcePoint" />
            <mxPoint x="450" y="240" as="targetPoint" />
          </mxGeometry>
        </mxCell>
        <mxCell id="FZKiXIjqvIoWWZmxXVQ1-22" value="&amp;lt;&amp;lt;includes&amp;gt;&amp;gt;" style="text;html=1;strokeColor=none;fillColor=none;align=center;verticalAlign=middle;whiteSpace=wrap;rounded=0;rotation=-30;" parent="1" vertex="1">
          <mxGeometry x="310" y="110" width="40" height="20" as="geometry" />
        </mxCell>
        <mxCell id="FZKiXIjqvIoWWZmxXVQ1-24" value="&amp;lt;&amp;lt;includes&amp;gt;&amp;gt;" style="text;html=1;strokeColor=none;fillColor=none;align=center;verticalAlign=middle;whiteSpace=wrap;rounded=0;rotation=0;" parent="1" vertex="1">
          <mxGeometry x="300" y="190" width="40" height="20" as="geometry" />
        </mxCell>
        <mxCell id="FZKiXIjqvIoWWZmxXVQ1-25" value="&amp;lt;&amp;lt;includes&amp;gt;&amp;gt;" style="text;html=1;strokeColor=none;fillColor=none;align=center;verticalAlign=middle;whiteSpace=wrap;rounded=0;rotation=10;" parent="1" vertex="1">
          <mxGeometry x="310" y="160" width="40" height="20" as="geometry" />
        </mxCell>
        <mxCell id="FZKiXIjqvIoWWZmxXVQ1-26" value="" style="endArrow=classic;html=1;entryX=0.051;entryY=0.723;entryDx=0;entryDy=0;entryPerimeter=0;exitX=0.5;exitY=0.5;exitDx=0;exitDy=0;exitPerimeter=0;" parent="1" source="FZKiXIjqvIoWWZmxXVQ1-11" target="FZKiXIjqvIoWWZmxXVQ1-3" edge="1">
          <mxGeometry width="50" height="50" relative="1" as="geometry">
            <mxPoint x="90" y="220" as="sourcePoint" />
            <mxPoint x="150" y="175" as="targetPoint" />
          </mxGeometry>
        </mxCell>
        <mxCell id="FZKiXIjqvIoWWZmxXVQ1-29" value="Hairdresser" style="shape=umlActor;verticalLabelPosition=bottom;verticalAlign=top;html=1;" parent="1" vertex="1">
          <mxGeometry x="700" y="40" width="30" height="60" as="geometry" />
        </mxCell>
        <mxCell id="FZKiXIjqvIoWWZmxXVQ1-34" value="" style="endArrow=classic;html=1;exitX=0.022;exitY=0.591;exitDx=0;exitDy=0;exitPerimeter=0;entryX=1;entryY=1;entryDx=0;entryDy=0;" parent="1" source="FZKiXIjqvIoWWZmxXVQ1-32" target="FZKiXIjqvIoWWZmxXVQ1-7" edge="1">
          <mxGeometry width="50" height="50" relative="1" as="geometry">
            <mxPoint x="410" y="270" as="sourcePoint" />
            <mxPoint x="460" y="220" as="targetPoint" />
          </mxGeometry>
        </mxCell>
        <mxCell id="FZKiXIjqvIoWWZmxXVQ1-32" value="System&lt;br&gt;Application" style="whiteSpace=wrap;html=1;aspect=fixed;" parent="1" vertex="1">
          <mxGeometry x="680" y="170" width="70" height="70" as="geometry" />
        </mxCell>
        <mxCell id="FZKiXIjqvIoWWZmxXVQ1-35" value="" style="endArrow=classic;html=1;exitX=0.5;exitY=0.5;exitDx=0;exitDy=0;exitPerimeter=0;entryX=0.977;entryY=0.38;entryDx=0;entryDy=0;entryPerimeter=0;" parent="1" source="FZKiXIjqvIoWWZmxXVQ1-29" target="FZKiXIjqvIoWWZmxXVQ1-7" edge="1">
          <mxGeometry width="50" height="50" relative="1" as="geometry">
            <mxPoint x="410" y="240" as="sourcePoint" />
            <mxPoint x="460" y="190" as="targetPoint" />
          </mxGeometry>
        </mxCell>
        <mxCell id="FZKiXIjqvIoWWZmxXVQ1-36" value="Clerk" style="shape=umlActor;verticalLabelPosition=bottom;verticalAlign=top;html=1;outlineConnect=0;" parent="1" vertex="1">
          <mxGeometry x="700" y="290" width="30" height="60" as="geometry" />
        </mxCell>
        <mxCell id="FZKiXIjqvIoWWZmxXVQ1-37" value="" style="endArrow=classic;html=1;exitX=0.5;exitY=0.5;exitDx=0;exitDy=0;exitPerimeter=0;" parent="1" source="FZKiXIjqvIoWWZmxXVQ1-36" target="FZKiXIjqvIoWWZmxXVQ1-8" edge="1">
          <mxGeometry width="50" height="50" relative="1" as="geometry">
            <mxPoint x="585" y="310" as="sourcePoint" />
            <mxPoint x="540" y="270" as="targetPoint" />
          </mxGeometry>
        </mxCell>
        <mxCell id="FZKiXIjqvIoWWZmxXVQ1-2" value="pay online" style="ellipse;whiteSpace=wrap;html=1;" parent="1" vertex="1">
          <mxGeometry x="200" y="230" width="90" height="50" as="geometry" />
        </mxCell>
        <mxCell id="FZKiXIjqvIoWWZmxXVQ1-5" value="send&amp;nbsp;e-mail confirmation" style="ellipse;whiteSpace=wrap;html=1;" parent="1" vertex="1">
          <mxGeometry x="380" y="280" width="90" height="50" as="geometry" />
        </mxCell>
        <mxCell id="FZKiXIjqvIoWWZmxXVQ1-39" value="" style="endArrow=classic;html=1;exitX=0.963;exitY=0.363;exitDx=0;exitDy=0;exitPerimeter=0;entryX=0;entryY=0.5;entryDx=0;entryDy=0;" parent="1" source="FZKiXIjqvIoWWZmxXVQ1-9" target="FZKiXIjqvIoWWZmxXVQ1-8" edge="1">
          <mxGeometry width="50" height="50" relative="1" as="geometry">
            <mxPoint x="450" y="430" as="sourcePoint" />
            <mxPoint x="500" y="380" as="targetPoint" />
          </mxGeometry>
        </mxCell>
        <mxCell id="FZKiXIjqvIoWWZmxXVQ1-40" value="&amp;lt;&amp;lt;extends&amp;gt;&amp;gt;" style="text;html=1;strokeColor=none;fillColor=none;align=center;verticalAlign=middle;whiteSpace=wrap;rounded=0;rotation=-5;" parent="1" vertex="1">
          <mxGeometry x="310" y="360" width="40" height="20" as="geometry" />
        </mxCell>
        <mxCell id="FZKiXIjqvIoWWZmxXVQ1-41" value="" style="endArrow=classic;html=1;exitX=0.5;exitY=0.5;exitDx=0;exitDy=0;exitPerimeter=0;entryX=-0.002;entryY=0.33;entryDx=0;entryDy=0;entryPerimeter=0;" parent="1" source="FZKiXIjqvIoWWZmxXVQ1-11" target="FZKiXIjqvIoWWZmxXVQ1-2" edge="1">
          <mxGeometry width="50" height="50" relative="1" as="geometry">
            <mxPoint x="560" y="370" as="sourcePoint" />
            <mxPoint x="610" y="320" as="targetPoint" />
          </mxGeometry>
        </mxCell>
        <mxCell id="FZKiXIjqvIoWWZmxXVQ1-43" value="" style="endArrow=classic;html=1;exitX=0.5;exitY=0.5;exitDx=0;exitDy=0;exitPerimeter=0;entryX=0;entryY=0.5;entryDx=0;entryDy=0;" parent="1" source="FZKiXIjqvIoWWZmxXVQ1-11" target="FZKiXIjqvIoWWZmxXVQ1-4" edge="1">
          <mxGeometry width="50" height="50" relative="1" as="geometry">
            <mxPoint x="560" y="370" as="sourcePoint" />
            <mxPoint x="610" y="320" as="targetPoint" />
          </mxGeometry>
        </mxCell>
        <mxCell id="FZKiXIjqvIoWWZmxXVQ1-9" value="call for appointment" style="ellipse;whiteSpace=wrap;html=1;" parent="1" vertex="1">
          <mxGeometry x="200" y="370" width="90" height="50" as="geometry" />
        </mxCell>
        <mxCell id="FZKiXIjqvIoWWZmxXVQ1-44" value="" style="endArrow=classic;html=1;exitX=0.5;exitY=0.5;exitDx=0;exitDy=0;exitPerimeter=0;entryX=0;entryY=0;entryDx=0;entryDy=0;" parent="1" source="FZKiXIjqvIoWWZmxXVQ1-11" target="FZKiXIjqvIoWWZmxXVQ1-10" edge="1">
          <mxGeometry width="50" height="50" relative="1" as="geometry">
            <mxPoint x="550" y="340" as="sourcePoint" />
            <mxPoint x="600" y="290" as="targetPoint" />
          </mxGeometry>
        </mxCell>
        <mxCell id="FZKiXIjqvIoWWZmxXVQ1-45" value="" style="endArrow=classic;html=1;exitX=0.5;exitY=0.5;exitDx=0;exitDy=0;exitPerimeter=0;entryX=0.059;entryY=0.286;entryDx=0;entryDy=0;entryPerimeter=0;" parent="1" source="FZKiXIjqvIoWWZmxXVQ1-11" target="FZKiXIjqvIoWWZmxXVQ1-9" edge="1">
          <mxGeometry width="50" height="50" relative="1" as="geometry">
            <mxPoint x="550" y="340" as="sourcePoint" />
            <mxPoint x="600" y="290" as="targetPoint" />
          </mxGeometry>
        </mxCell>
        <mxCell id="FZKiXIjqvIoWWZmxXVQ1-46" value="" style="endArrow=classic;html=1;exitX=0.5;exitY=0.5;exitDx=0;exitDy=0;exitPerimeter=0;entryX=0.01;entryY=0.63;entryDx=0;entryDy=0;entryPerimeter=0;" parent="1" source="FZKiXIjqvIoWWZmxXVQ1-11" target="FZKiXIjqvIoWWZmxXVQ1-1" edge="1">
          <mxGeometry width="50" height="50" relative="1" as="geometry">
            <mxPoint x="550" y="340" as="sourcePoint" />
            <mxPoint x="600" y="290" as="targetPoint" />
          </mxGeometry>
        </mxCell>
        <mxCell id="FZKiXIjqvIoWWZmxXVQ1-47" value="" style="endArrow=classic;html=1;exitX=0;exitY=0.5;exitDx=0;exitDy=0;entryX=0.973;entryY=0.386;entryDx=0;entryDy=0;entryPerimeter=0;" parent="1" source="FZKiXIjqvIoWWZmxXVQ1-5" target="FZKiXIjqvIoWWZmxXVQ1-10" edge="1">
          <mxGeometry width="50" height="50" relative="1" as="geometry">
            <mxPoint x="530" y="340" as="sourcePoint" />
            <mxPoint x="580" y="290" as="targetPoint" />
          </mxGeometry>
        </mxCell>
        <mxCell id="FZKiXIjqvIoWWZmxXVQ1-48" value="&amp;lt;&amp;lt;extends&amp;gt;&amp;gt;" style="text;html=1;strokeColor=none;fillColor=none;align=center;verticalAlign=middle;whiteSpace=wrap;rounded=0;rotation=-10;" parent="1" vertex="1">
          <mxGeometry x="320" y="290" width="40" height="20" as="geometry" />
        </mxCell>
        <mxCell id="FZKiXIjqvIoWWZmxXVQ1-56" value="" style="endArrow=classic;html=1;exitX=0.029;exitY=0.648;exitDx=0;exitDy=0;exitPerimeter=0;" parent="1" source="FZKiXIjqvIoWWZmxXVQ1-32" target="FZKiXIjqvIoWWZmxXVQ1-5" edge="1">
          <mxGeometry width="50" height="50" relative="1" as="geometry">
            <mxPoint x="530" y="290" as="sourcePoint" />
            <mxPoint x="580" y="240" as="targetPoint" />
          </mxGeometry>
        </mxCell>
        <mxCell id="FZKiXIjqvIoWWZmxXVQ1-57" value="" style="endArrow=classic;html=1;exitX=0.769;exitY=0.108;exitDx=0;exitDy=0;exitPerimeter=0;entryX=0.306;entryY=0.919;entryDx=0;entryDy=0;entryPerimeter=0;" parent="1" source="FZKiXIjqvIoWWZmxXVQ1-4" target="FZKiXIjqvIoWWZmxXVQ1-7" edge="1">
          <mxGeometry width="50" height="50" relative="1" as="geometry">
            <mxPoint x="530" y="290" as="sourcePoint" />
            <mxPoint x="580" y="240" as="targetPoint" />
          </mxGeometry>
        </mxCell>
        <mxCell id="FZKiXIjqvIoWWZmxXVQ1-4" value="book appointment" style="ellipse;whiteSpace=wrap;html=1;" parent="1" vertex="1">
          <mxGeometry x="200" y="160" width="90" height="50" as="geometry" />
        </mxCell>
        <mxCell id="FZKiXIjqvIoWWZmxXVQ1-58" value="" style="endArrow=classic;html=1;exitX=0.701;exitY=0.897;exitDx=0;exitDy=0;exitPerimeter=0;" parent="1" source="FZKiXIjqvIoWWZmxXVQ1-3" edge="1">
          <mxGeometry width="50" height="50" relative="1" as="geometry">
            <mxPoint x="530" y="290" as="sourcePoint" />
            <mxPoint x="390" y="170" as="targetPoint" />
          </mxGeometry>
        </mxCell>
        <mxCell id="FZKiXIjqvIoWWZmxXVQ1-3" value="select appointment" style="ellipse;whiteSpace=wrap;html=1;" parent="1" vertex="1">
          <mxGeometry x="200" y="90" width="90" height="50" as="geometry" />
        </mxCell>
        <mxCell id="FZKiXIjqvIoWWZmxXVQ1-60" value="&lt;b&gt;&lt;font style=&quot;font-size: 18px&quot;&gt;Appointment&amp;nbsp;&lt;/font&gt;&lt;/b&gt;&lt;b&gt;&lt;font style=&quot;font-size: 18px&quot;&gt;Booking&amp;nbsp;&lt;/font&gt;&lt;/b&gt;&lt;b&gt;&lt;font style=&quot;font-size: 18px&quot;&gt;Application&lt;/font&gt;&lt;/b&gt;" style="text;html=1;strokeColor=none;fillColor=none;align=center;verticalAlign=middle;whiteSpace=wrap;rounded=0;" parent="1" vertex="1">
          <mxGeometry x="191.5" y="-57" width="337" height="20" as="geometry" />
        </mxCell>
      </root>
    </mxGraphModel>
  </diagram>
</mxfile>
